HIERARCHY
ROOT Hips
{
	OFFSET	0.00	0.00	0.00
	CHANNELS 6 Xposition Yposition Zposition Zrotation Xrotation Yrotation
	JOINT LeftUpLeg
	{
		OFFSET	 0.126116	-0.065224	 0.014019
		CHANNELS 3 Zrotation Xrotation Yrotation
		JOINT LeftLeg
		{
			OFFSET	 0.000000	 0.569914	 0.000000
			CHANNELS 3 Zrotation Xrotation Yrotation
			JOINT LeftFoot
			{
				OFFSET	 0.000000	 0.544423	 0.000000
				CHANNELS 3 Zrotation Xrotation Yrotation
				JOINT LeftToeBase
				{
					OFFSET	 0.000000	 0.207117	 0.000000
					CHANNELS 3 Zrotation Xrotation Yrotation
					End Site
					{
						OFFSET	 0.000000	 0.207117	 0.000000
					}
				}
			}
		}
	}
	JOINT RightUpLeg
	{
		OFFSET	-0.124023	-0.065224	 0.008373
		CHANNELS 3 Zrotation Xrotation Yrotation
		JOINT RightLeg
		{
			OFFSET	 0.000000	 0.570047	 0.000000
			CHANNELS 3 Zrotation Xrotation Yrotation
			JOINT RightFoot
			{
				OFFSET	 0.000000	 0.544354	 0.000000
				CHANNELS 3 Zrotation Xrotation Yrotation
				JOINT RightToeBase
				{
					OFFSET	 0.000000	 0.207540	 0.000000
					CHANNELS 3 Zrotation Xrotation Yrotation
					End Site
					{
						OFFSET	 0.000000	 0.207540	 0.000000
					}
				}
			}
		}
	}
	JOINT Spine
	{
		OFFSET	 0.000184	 0.117403	 0.007763
		CHANNELS 3 Zrotation Xrotation Yrotation
		JOINT Spine1
		{
			OFFSET	 0.000000	 0.137269	 0.000000
			CHANNELS 3 Zrotation Xrotation Yrotation
			JOINT Spine2
			{
				OFFSET	 0.000000	 0.156879	 0.000000
				CHANNELS 3 Zrotation Xrotation Yrotation
				JOINT LeftShoulder
				{
					OFFSET	 0.080501	 0.160143	 0.002496
					CHANNELS 3 Zrotation Xrotation Yrotation
					JOINT LeftArm
					{
						OFFSET	 0.000000	 0.164363	 0.000000
						CHANNELS 3 Zrotation Xrotation Yrotation
						JOINT LeftForeArm
						{
							OFFSET	 0.000000	 0.364576	 0.000000
							CHANNELS 3 Zrotation Xrotation Yrotation
							JOINT LeftHand
							{
								OFFSET	 0.000000	 0.360812	 0.000000
								CHANNELS 3 Zrotation Xrotation Yrotation
								JOINT LeftHandIndex1
								{
									OFFSET	 0.000000	 0.086006	 0.000000
									CHANNELS 3 Zrotation Xrotation Yrotation
									JOINT LeftHandIndex2
									{
										OFFSET	 0.000000	 0.047237	 0.000000
										CHANNELS 3 Zrotation Xrotation Yrotation
										JOINT LeftHandIndex3
										{
											OFFSET	-0.004284	 0.038165	 0.000551
											CHANNELS 3 Zrotation Xrotation Yrotation
											End Site
											{
												OFFSET	-0.004284	 0.038165	 0.000551
											}
										}
									}
								}
							}
						}
					}
				}
				JOINT Neck
				{
					OFFSET	 0.000000	 0.176489	 0.000000
					CHANNELS 3 Zrotation Xrotation Yrotation
					JOINT Head
					{
						OFFSET	 0.000000	 0.077941	 0.001747
						CHANNELS 3 Zrotation Xrotation Yrotation
						End Site
						{
							OFFSET	 0.000000	 0.077941	 0.001747
						}
					}
				}
				JOINT RightShoulder
				{
					OFFSET	-0.080363	 0.159706	-0.000306
					CHANNELS 3 Zrotation Xrotation Yrotation
					JOINT RightArm
					{
						OFFSET	 0.000000	 0.164196	 0.000000
						CHANNELS 3 Zrotation Xrotation Yrotation
						JOINT RightForeArm
						{
							OFFSET	 0.000000	 0.365611	 0.000000
							CHANNELS 3 Zrotation Xrotation Yrotation
							JOINT RightHand
							{
								OFFSET	 0.000000	 0.360648	 0.000000
								CHANNELS 3 Zrotation Xrotation Yrotation
								JOINT RightHandIndex1
								{
									OFFSET	 0.000000	 0.069977	 0.000000
									CHANNELS 3 Zrotation Xrotation Yrotation
									JOINT RightHandIndex2
									{
										OFFSET	 0.000000	 0.052305	 0.000000
										CHANNELS 3 Zrotation Xrotation Yrotation
										JOINT RightHandIndex3
										{
											OFFSET	 0.009002	 0.042196	 0.000782
											CHANNELS 3 Zrotation Xrotation Yrotation
											End Site
											{
												OFFSET	 0.009002	 0.042196	 0.000782
											}
										}
									}
								}
							}
						}
					}
				}
			}
		}
	}
}
MOTION
Frames:    12
Frame Time: 0.03333334
-0.000456	 1.204369	-4.418700	-0.249939	 2.779428	-172.038900	-164.732700	 0.249330	-29.971160	 14.606750	-62.273770	 14.538860	-29.525700	 66.052960	 25.446890	 3.032267	 46.469230	-3.217220	 173.239900	 24.787660	 32.161300	-3.175239	-36.376620	 4.167122	-31.272870	 71.951780	 21.896020	-1.578340	 32.045890	 2.841858	 2.899436	 8.025836	 1.155453	-3.432402	 3.008954	 2.934725	 4.465813	-3.505786	-14.864250	-120.448200	 7.974818	 94.231350	 37.933810	 30.201080	-13.940570	 5.988227	-0.244273	 3.599745	 19.907030	 9.010442	 76.804180	 5.005258	 23.120050	-2.049767	-5.873952	 26.335680	 2.920459	 5.586139	 10.392880	-0.072170	 0.016238	-5.014429	-0.024755	-1.821102	-1.642380	-6.142217	 119.665800	-1.246940	-90.287800	 20.206860	 46.140720	-14.766700	-21.133930	-0.763136	-3.760618	 5.146658	-4.223252	-35.580620	-2.146780	 14.651820	 1.195663	 13.737290	 34.245170	-8.169399	-8.490806	 12.052950	-0.459306
 0.000824	 1.238681	-4.851484	-1.426169	 1.438132	-178.439000	-168.132600	 29.270210	-50.150810	 6.700799	-41.358380	 1.081327	-6.934685	 72.667670	 19.461490	 1.341617	 29.070300	-2.734374	 176.711500	-0.272590	 27.864900	-2.137428	-26.381910	-3.153872	-67.674140	 77.464310	 65.016750	-1.914230	 35.981950	 3.014511	 3.393947	 6.781110	-19.201410	-3.379812	 4.384681	 5.107183	 3.555099	-4.460158	-12.270030	-120.161000	 5.151799	 92.840440	 11.542920	 48.849680	-1.907599	 13.280090	-0.270598	 23.172110	 0.904836	 3.610035	 93.483410	 5.086030	 28.249850	-2.200185	-5.933819	 30.948360	 3.463810	 5.801796	 15.603020	-0.009267	 0.129328	-4.767807	-0.610171	-2.715531	-2.483975	-6.778178	 119.479400	 1.224780	-91.450500	-5.111574	 33.771390	-0.771929	-51.336760	-1.446946	-23.970780	 12.089610	-6.619031	-19.446930	-2.905072	 19.836300	 1.553798	 14.622580	 39.519540	-9.834779	-8.526816	 17.035040	-0.774914
-0.002325	 1.232144	-4.948521	-1.989079	 0.782386	-179.836900	-178.554400	 26.020490	-46.164880	 1.643529	-12.209710	-4.311342	-10.458490	 66.555690	 26.371520	 1.280403	 28.269850	-2.708125	 176.138300	-5.017565	 26.417530	-1.989807	-24.786160	-5.120535	-70.754670	 76.490950	 70.573190	-2.261764	 39.650060	 3.198626	 2.777646	 6.607790	-22.027170	-3.372360	 4.624387	 5.404304	 3.323147	-4.647578	-11.555800	-120.080000	 4.387511	 92.465670	-0.441493	 51.287650	 5.618593	 23.083190	-0.679142	 27.464390	-8.151793	 1.205299	 92.041540	 5.064950	 28.930920	-2.162907	-5.957474	 32.108940	 3.605610	 5.860214	 17.016270	 0.004542	 0.124484	-4.775236	-0.723285	-2.829426	-2.719836	-6.886183	 119.377000	 1.680320	-91.660120	-14.235080	 32.498040	 2.921691	-48.347700	-1.315758	-28.017910	 7.575798	-9.624388	-16.071160	-2.990563	 20.541350	 1.589510	 14.790790	 40.369510	-10.125760	-8.530503	 17.981840	-0.835467
-0.010987	 1.189020	-5.132864	-2.238621	 0.347244	 177.926700	 179.313600	 32.782730	-39.984490	 0.675249	-5.080857	-9.090324	-23.667690	 67.703070	 41.308040	 1.241901	 27.760460	-2.692025	 173.775600	-10.755700	 22.339940	-2.609057	-31.190250	-8.949850	-64.258820	 75.397180	 73.599110	-3.702817	 51.538940	 4.112397	 1.889675	 6.241412	-24.361860	-3.253109	 4.441179	 5.728509	 3.034325	-4.445451	-10.385040	-119.604500	 3.170444	 91.854980	-22.626210	 54.817130	 19.006040	 48.087670	-1.606296	 34.862810	-29.974300	-5.182430	 85.362440	 4.834262	 27.907740	-1.884871	-6.000002	 33.848640	 3.822798	 5.974949	 19.783320	 0.027492	 0.048781	-4.981324	-0.808128	-2.425030	-2.821206	-7.087176	 119.536000	 1.878923	-91.763640	-36.971950	 40.158520	 11.958710	-28.134110	-0.606051	-34.185450	-4.084600	-24.852400	-12.285960	-2.915026	 21.922420	 1.552571	 15.177620	 42.185310	-10.772420	-8.534623	 19.761240	-0.950031
-0.032218	 1.176736	-5.433648	-4.315468	 1.019946	 176.684700	-178.480900	 33.049590	-41.351590	 3.888534	-27.096110	-1.507719	 0.015049	 69.856830	 18.360640	 1.368609	 29.419570	-2.746198	 167.596200	-16.746050	 18.372160	-3.337308	-37.746510	 0.237668	 13.753590	 50.690760	 1.712942	-10.051000	 66.574870	 14.999850	 0.420053	 8.434822	-22.579270	-3.356778	 4.097524	 5.250835	 2.437834	-4.660926	-8.625522	-120.543000	 3.707608	 92.154210	-27.716220	 54.587810	 24.149430	 52.787610	-1.627715	 42.742780	-31.105050	-5.927969	 65.846120	 4.442710	 22.009840	-1.572359	-5.894776	 28.440820	 3.164809	 5.741313	 14.139090	-0.025036	-0.077724	-5.200165	-0.740165	-2.043488	-2.243679	-6.837012	 119.393900	 1.319041	-91.490480	-32.227260	 43.639970	 10.476060	-19.649620	-0.199581	-41.750500	-11.683560	-23.718480	 1.545314	-2.795208	 24.574670	 1.503823	 15.852160	 44.970200	-11.839460	-8.533357	 22.586390	-1.134501
-0.043315	 1.194461	-5.643966	-4.626040	 2.014185	 179.881500	 179.275000	 24.584850	-37.509390	 5.103019	-33.864010	 0.457723	 0.336757	 72.924780	 15.727170	 1.375088	 29.503060	-2.749059	 163.016300	-1.907011	 22.236040	-8.023458	-61.687880	-0.057858	 16.933770	 53.634610	-6.798654	-3.070480	 46.022270	 6.403939	 0.195067	 9.325699	-19.108390	-2.746251	 3.649521	 3.860004	 2.003987	-4.369010	-7.422524	-121.630500	 5.038799	 92.867260	-5.184889	 52.014170	 8.474459	 36.389060	-0.955336	 46.252550	-10.247170	-3.750877	 42.190650	 4.427375	 20.452990	-1.638085	-5.862895	 24.059320	 2.661911	 5.482078	 7.899698	-0.108943	-0.147124	-5.126665	-0.532241	-2.433669	-1.750003	-5.950671	 119.165600	 0.796395	-91.233100	-21.125520	 40.156000	 6.673267	-21.267610	-0.205421	-45.880600	-7.097172	-11.358570	 13.320580	-2.709773	 26.257140	 1.466266	 16.222430	 46.331380	-12.399180	-8.528144	 24.198410	-1.241552
-0.046253	 1.217905	-5.773889	-4.099046	 2.338034	-177.090800	 178.405100	 17.241620	-34.204380	 5.046607	-33.570650	 1.518279	-5.600127	 77.471860	 18.144450	 1.394085	 29.747110	-2.757498	 161.681900	 11.604340	 26.994130	-11.094000	-68.655490	-1.931477	 9.631752	 63.836560	-3.571977	-1.656075	 32.865630	 3.541653	 0.331806	 9.249229	-15.099890	-1.964385	 3.261496	 2.504540	 1.733618	-3.856435	-6.670609	-121.906500	 5.925421	 93.327550	 15.952630	 47.067600	-5.621055	 21.863260	-0.269140	 47.737750	 7.794952	-6.038552	 19.572960	 4.570842	 20.012110	-1.707155	-5.862152	 22.253510	 2.460255	 5.363693	 5.094949	-0.155524	-0.162246	-4.988987	-0.340634	-2.591046	-1.612216	-5.125964	 118.943300	 0.499168	-91.084320	-0.456606	 41.953830	-5.755615	-36.351940	-0.699828	-48.017920	 0.045664	-6.859905	 19.105430	-2.637561	 26.815120	 1.430749	 16.305180	 46.621650	-12.522140	-8.525867	 24.691740	-1.274623
-0.043701	 1.280764	-5.855699	-1.817181	-9.656181	-176.521500	 174.420300	 12.903180	-32.112440	 0.674627	-5.076294	 1.490970	-3.180691	 65.538870	 14.809700	 1.441385	 30.349890	-2.778833	 172.230000	 37.465320	 29.332300	-0.353754	-4.694005	 6.196425	-20.774760	-5.040386	-4.367221	-1.745793	 33.712430	 4.104710	 1.581883	 12.868180	-6.133738	 2.566098	 27.460770	-0.970017	-0.537827	-14.451860	-3.855147	-121.749800	 6.319276	 93.513290	 68.667630	-4.832036	-27.211290	 21.376230	-0.229275	 48.692850	-21.935260	 4.187580	-16.380720	 4.655262	 19.348820	-1.695252	-5.863137	 21.761400	 2.405755	 5.340837	 4.558178	-0.165080	-0.159140	-4.934049	-0.245182	-2.451991	-1.604730	-4.120831	 118.788500	 0.350841	-91.008880	 0.712912	 48.456530	-7.000579	-65.481970	-1.401670	-49.863190	 1.025979	-17.357030	 24.058140	-2.584510	 26.782290	 1.404362	 16.255430	 46.447730	-12.448310	-8.526047	 24.655300	-1.272179
-0.026039	 1.371165	-5.758557	-8.140586	-41.708400	 173.266000	 172.439000	 51.039710	-38.376830	 0.618572	-4.656538	-0.726302	-7.133587	 60.046790	 22.285910	 1.405638	 29.895020	-2.762667	-2.928532	 86.218040	-164.217200	-0.272080	-3.613729	 4.382032	-33.442750	-26.772710	-9.668175	-8.605167	 63.426800	 14.250370	-10.737220	 3.149002	-2.171929	-0.723427	 30.106410	-2.575594	-0.034200	-15.771450	 1.900452	-121.128000	 4.322333	 92.484480	 97.477840	-37.378340	-37.385650	 20.701730	-0.196656	 48.680290	-75.586310	 6.594599	 10.183280	 4.365017	 20.179550	-1.542559	-5.869661	 25.694200	 2.847059	 5.599520	 10.714620	-0.067747	-0.123066	-5.216733	-0.656371	-2.103334	-1.773543	-4.080817	 119.280400	 1.013025	-91.340260	-5.709034	 42.815770	-4.804173	-86.276760	-1.599923	-50.651740	-23.141040	-30.184130	 18.896070	-2.746396	 25.609540	 1.483243	 16.104590	 45.909530	-12.222790	-8.530432	 23.612060	-1.202442
-0.015089	 1.399174	-5.746253	-12.259700	-49.564280	 168.574200	 172.070200	 60.312540	-38.168600	 0.599138	-4.510801	-2.569376	-7.011585	 59.041850	 22.529190	 1.365172	 29.375230	-2.744684	-9.647048	 75.089940	-156.752500	-0.263480	-3.500005	 1.147929	-35.022030	-29.518700	-10.438370	-9.821761	 66.308410	 14.658830	-16.922780	-0.532832	-2.714052	-2.545274	 30.679870	-2.695957	 0.421975	-15.666200	 5.008677	-120.516400	 3.685125	 92.142000	 109.851400	-39.982220	-47.513630	 20.583660	-0.190969	 48.678140	-84.138990	-11.331060	 6.008179	 4.450045	 22.145420	-1.577327	-5.896605	 28.586020	 3.181872	 5.747880	 14.298040	-0.023251	-0.075240	-5.196444	-0.742479	-2.073429	-2.089994	-3.488356	 119.398500	 1.334211	-91.497900	-11.993420	 34.658450	-1.247316	-85.935110	-1.599223	-50.638620	-29.438610	-33.169890	 22.897740	-2.797564	 24.520900	 1.504765	 15.838170	 44.916630	-11.817980	-8.533475	 22.531510	-1.130881
-0.011819	 1.406490	-5.744437	-13.587220	-51.479270	 167.156800	 171.856500	 62.454490	-37.646610	 0.595772	-4.485673	-3.604020	-7.480879	 58.920780	 23.048760	 1.342637	 29.083560	-2.734817	-9.992480	 72.385250	-155.924100	-0.262167	-3.482501	-0.356826	-35.182450	-30.368900	-10.248450	-8.462112	 64.542520	 12.560910	-18.726520	-1.536649	-3.498171	-3.303920	 30.823760	-2.819017	 0.613574	-15.511510	 6.500718	-120.341700	 3.537175	 92.062000	 113.659900	-40.129550	-52.715730	 20.556380	-0.189648	 48.677720	-85.794180	-19.264480	 2.348443	 4.498790	 23.037130	-1.610597	-5.909935	 29.541010	 3.294839	 5.791069	 15.343480	-0.011947	-0.058899	-5.171968	-0.757701	-2.122057	-2.213051	-3.121374	 119.429200	 1.434083	-91.546820	-14.720160	 32.240890	 0.139075	-83.120030	-1.588615	-50.528280	-33.249550	-33.281320	 22.967920	-2.813013	 24.167180	 1.510889	 15.747150	 44.564220	-11.677660	-8.534161	 22.170540	-1.107115
-0.010727	 1.409340	-5.743713	-14.271790	-52.188640	 166.437300	 171.709700	 63.299990	-37.422370	 0.594485	-4.475797	-4.059791	-7.638762	 58.869660	 23.246280	 1.333484	 28.964640	-2.730840	-10.275560	 71.336520	-155.475600	-0.261671	-3.475324	-0.990611	-35.247530	-30.698260	-10.186430	-7.974347	 63.816600	 11.770500	-19.522640	-1.943052	-4.506068	-3.971563	 30.849050	-3.205414	 0.736534	-15.308080	 8.235809	-120.270500	 3.476789	 92.029540	 115.699100	-40.071860	-58.582650	 20.544110	-0.189064	 48.677480	-87.106450	-25.947040	-1.676814	 4.518923	 23.400750	-1.624465	-5.916030	 29.930440	 3.341288	 5.808684	 15.769810	-0.007556	-0.052234	-5.161989	-0.763910	-2.148280	-2.301577	-2.698368	 119.441800	 1.474777	-91.566770	-16.086330	 31.348540	 0.899829	-81.705060	-1.581383	-50.473290	-36.338170	-31.611160	 20.746540	-2.819288	 24.022960	 1.513352	 15.710550	 44.420490	-11.620910	-8.534394	 22.023350	-1.097443
